Coordinates
version=1
nRows=14
nColumns=40
inDegrees=yes

Units are S.I. units (second, meters, Newtons, ...)
Angles are in degrees.

endheader
time	pelvis_tilt	pelvis_list	pelvis_rotation	pelvis_tx	pelvis_ty	pelvis_tz	hip_flexion_r	hip_adduction_r	hip_rotation_r	knee_angle_r	knee_angle_r_beta	ankle_angle_r	subtalar_angle_r	mtp_angle_r	hip_flexion_l	hip_adduction_l	hip_rotation_l	knee_angle_l	knee_angle_l_beta	ankle_angle_l	subtalar_angle_l	mtp_angle_l	lumbar_extension	lumbar_bending	lumbar_rotation	arm_flex_r	arm_add_r	arm_rot_r	elbow_flex_r	pro_sup_r	wrist_flex_r	wrist_dev_r	arm_flex_l	arm_add_l	arm_rot_l	elbow_flex_l	pro_sup_l	wrist_flex_l	wrist_dev_l
      1.96000000	     -2.78335445	     -3.82502207	     -2.09926201	      1.02311570	      0.93091483	      0.48524835	     16.83322790	      0.00953875	    -12.41854262	     18.68210063	     18.68210063	      6.93009274	      1.97092699	     -3.32788360	      3.51462022	    -10.69298021	     -9.82367149	     28.26297255	     28.26297255	     15.17196454	     -7.65388829	     -6.16482988	     -7.58230095	      4.34949594	      1.53144853	     -0.12131591	    -12.31744610	     -4.68697780	     33.03679048	     46.17913159	      0.00000000	      0.00000000	     13.63435142	    -14.84233057	    -12.47268403	     67.26861240	     47.49301248	      0.00000000	      0.00000000
      1.97314286	     -2.71633566	     -3.83849384	     -1.73869440	      1.02338580	      0.93122052	      0.48835999	     16.30346960	      0.13275054	    -12.90132379	     18.64403470	     18.64403470	      7.37462534	      2.26295191	     -3.45820304	      5.10613419	    -11.24877815	     -8.75475831	     31.70117925	     31.70117925	     14.04636134	     -9.01953525	     -6.95088307	     -7.61078398	      4.35933244	      1.25438496	      1.48170320	    -12.38101295	     -4.38677352	     34.28958508	     46.11668825	      0.00000000	      0.00000000	     12.67159161	    -14.76134646	    -11.99904491	     65.42056922	     47.42099434	      0.00000000	      0.00000000
      1.98628571	     -2.60043955	     -3.84130305	     -1.30761186	      1.02338794	      0.93150015	      0.49112597	     15.71433943	      0.20098962	    -13.52053600	     18.57834032	     18.57834032	      7.77247002	      2.70298361	     -3.67320019	      6.79795432	    -11.66042427	     -7.39833096	     35.18285768	     35.18285768	     12.08572553	    -11.03333060	     -8.73806988	     -7.69735993	      4.42195451	      1.68079646	      2.29268663	    -12.99730484	     -3.00386767	     36.47677950	     45.93574917	      0.00000000	      0.00000000	     13.00146081	    -14.28421374	    -10.81712593	     61.63974591	     47.26894912	      0.00000000	      0.00000000
      1.99942857	     -2.54562635	     -3.88463859	     -0.82961790	      1.02307931	      0.93156329	      0.49371780	     15.20754257	      0.33954299	    -14.01948471	     18.49485275	     18.49485275	      8.12425079	      2.85482062	     -3.89042973	      8.82863418	    -12.11744065	     -6.07642093	     39.05095954	     39.05095954	     10.67333875	    -12.35748828	     -8.92864377	     -7.78886196	      4.50535159	      1.35402275	      4.02367725	    -13.14965990	     -2.88089076	     37.74895185	     45.88757475	      0.00000000	      0.00000000	     12.18963902	    -14.12112096	    -10.29755386	     59.65312505	     47.19081883	      0.00000000	      0.00000000
      2.01257143	     -2.48400340	     -3.95206154	     -0.31719578	      1.02254041	      0.93154943	      0.49602856	     14.69442305	      0.48681122	    -14.57118752	     18.36802722	     18.36802722	      8.38448674	      3.02641887	     -4.36313607	     10.97986741	    -12.48438180	     -4.64774748	     42.96168866	     42.96168866	      9.42111309	    -13.47699598	     -8.24738489	     -7.88685874	      4.65158656	      1.79833734	      5.10320514	    -13.81565359	     -2.14227062	     39.67022434	     45.77162586	      0.00000000	      0.00000000	     12.55643066	    -13.53086085	     -9.10504416	     55.80376553	     47.03467902	      0.00000000	      0.00000000
      2.02571429	     -2.46893590	     -4.04252151	      0.21094155	      1.02181038	      0.93139537	      0.49812301	     14.25608881	      0.67537010	    -14.99586960	     18.25657442	     18.25657442	      8.67288832	      2.97503470	     -4.54861597	     13.24280456	    -12.82412466	     -3.31666859	     46.74107343	     46.74107343	      8.07104648	    -14.29718559	     -7.69649190	     -7.97826783	      4.81182930	      1.48468142	      6.91966201	    -14.04370791	     -2.16223526	     40.96415571	     45.73347071	      0.00000000	      0.00000000	     11.69547250	    -13.27188718	     -8.56814348	     53.94853522	     46.95515972	      0.00000000	      0.00000000
      2.03885714	     -2.42563253	     -4.12739069	      0.74826685	      1.02091813	      0.93128100	      0.49997217	     13.82250765	      0.84444414	    -15.43458068	     18.17383445	     18.17383445	      8.93380299	      2.87926206	     -4.84516863	     15.49424370	    -13.04495240	     -2.00132648	     50.31469347	     50.31469347	      7.15653533	    -14.82758830	     -6.20314846	     -8.09420720	      4.96664028	      1.38274310	      8.68444474	    -14.42678401	     -1.97982442	     42.42645168	     45.67804185	      0.00000000	      0.00000000	     11.24650277	    -12.89186819	     -7.83391594	     51.22512458	     46.84999235	      0.00000000	      0.00000000
      2.05200000	     -2.22756238	     -4.28674177	      1.20954143	      1.01999650	      0.93137977	      0.50175200	     13.21773778	      1.11607349	    -15.79465638	     18.07084276	     18.07084276	      9.21794441	      2.82312302	     -4.97473752	     17.45642670	    -13.35675085	     -0.93222046	     53.42585083	     53.42585083	      6.08015561	    -15.18093772	     -5.68946100	     -8.49914006	      5.21132415	      1.72878853	     10.54353007	    -15.01596670	     -2.06456355	     43.32718995	     45.66011811	      0.00000000	      0.00000000	     10.55066104	    -12.20843595	     -7.42907601	     50.06847093	     46.79212647	      0.00000000	      0.00000000
      2.06514286	     -2.29442986	     -4.44243908	      1.74559594	      1.01893191	      0.93121480	      0.50331551	     12.85196296	      1.38130054	    -16.20068451	     17.83796844	     17.83796844	      9.44046697	      2.71591361	     -5.13754921	     19.71975215	    -13.53373602	      0.19773134	     56.17396818	     56.17396818	      5.39334116	    -15.44264861	     -4.48280981	     -8.46364192	      5.46202912	      1.56569628	     12.33043141	    -15.30872685	     -2.02287576	     44.59140347	     45.62117686	      0.00000000	      0.00000000	      9.68703437	    -11.84997374	     -6.89575561	     47.88169347	     46.70930632	      0.00000000	      0.00000000
      2.07828571	     -2.23748166	     -4.37583793	      2.17070896	      1.01788687	      0.93145093	      0.50466729	     12.31335939	      1.43909322	    -16.39634105	     17.50889617	     17.50889617	      9.40084680	      2.51028138	     -5.99972137	     21.87603725	    -13.48658354	      0.97122078	     58.88803798	     58.88803798	      7.58842220	    -14.10078201	      2.95981573	     -8.60864575	      5.51811008	      2.59307028	     12.92586350	    -16.55937851	     -1.31089928	     47.81982006	     45.47336603	      0.00000000	      0.00000000	     10.72686398	    -11.09354730	     -4.76302372	     42.20580031	     46.42181027	      0.00000000	      0.00000000
      2.09142857	     -2.22528713	     -4.39856430	      2.57059776	      1.01678259	      0.93174043	      0.50600294	     11.81756457	      1.58556500	    -16.71428738	     17.16497229	     17.16497229	      9.53200439	      2.51724733	     -5.99382576	     23.67035249	    -13.55162730	      1.52448225	     60.37389696	     60.37389696	      7.08889469	    -14.35247531	      3.14527991	     -8.79429891	      5.57908182	      2.68544455	     14.90985879	    -16.95537228	     -1.51784662	     48.74287024	     45.46152501	      0.00000000	      0.00000000	      9.60078219	    -10.64353010	     -4.45209725	     41.02321666	     46.36440695	      0.00000000	      0.00000000
      2.10457143	     -2.22005587	     -4.44274912	      2.98156686	      1.01577611	      0.93212032	      0.50718146	     11.24658871	      1.77348082	    -17.00629046	     16.68470235	     16.68470235	      9.71699740	      2.62409566	     -6.03408045	     25.35328455	    -13.61629920	      1.98569980	     61.30620629	     61.30620629	      6.81137768	    -14.61415160	      3.53666065	     -8.86778812	      5.73992453	      2.61467336	     16.89167115	    -17.19622128	     -1.62802946	     49.83151578	     45.43912890	      0.00000000	      0.00000000	      8.46788879	    -10.29069731	     -4.08909089	     39.39287633	     46.29802931	      0.00000000	      0.00000000
      2.11771429	     -2.20725577	     -4.31696410	      3.24604894	      1.01478129	      0.93269161	      0.50831215	     10.72290503	      1.77385319	    -17.16549866	     16.31320554	     16.31320554	      9.86939041	      2.70434423	     -6.04387057	     26.73892844	    -13.60143182	      1.99425823	     61.52774138	     61.52774138	      6.69448783	    -14.84764219	      3.72359253	     -9.00878006	      5.68380544	      3.10189444	     18.73820961	    -17.77387657	     -1.81618493	     50.63184312	     45.42965005	      0.00000000	      0.00000000	      7.32854344	     -9.76303142	     -3.86566310	     38.42980954	     46.25188435	      0.00000000	      0.00000000
      2.13085714	     -2.23946877	     -4.34870463	      3.63179512	      1.01376369	      0.93329213	      0.50922740	     10.01554604	      1.98358445	    -17.56267085	     15.47159910	     15.47159910	      9.87602037	      3.07239866	     -6.03315812	     28.12335310	    -13.63325905	      2.16072209	     61.23346842	     61.23346842	      6.77286807	    -15.31978464	      4.22399319	     -9.09606608	      5.81620572	      2.80274631	     20.72811329	    -17.80531273	     -1.84673620	     52.01923228	     45.39296187	      0.00000000	      0.00000000	      6.11766391	     -9.50714830	     -3.47504660	     36.43757533	     46.17932846	      0.00000000	      0.00000000
